<svg xmlns="http://www.w3.org/2000/svg" viewBox="0 0 243.75 48.2"><path d="M65.35 26.95v-5.59h-3.91v-1.94h3.91v-4.38h2.28v4.38h9.21v-4.7h2.31v4.7h3.68v1.94h-3.68v3c0 3.28-1.1 5.71-3.29 7.29-2 1.43-5.07 2.24-9.2 2.42l-.4-2q2.49-.105 4.92-.66c1.18-.26 2.3-.78 3.26-1.51a7.02 7.02 0 0 0 2.4-5.78v-2.76h-9.21v5.59zm33.46-5.1c-1.7-1.12-3.5-2.08-5.38-2.87l-3.5-1.44 1-1.73c3.22 1.04 6.32 2.43 9.25 4.13zm4 8.13a17.3 17.3 0 0 1-5.23 2.61c-2.35.67-4.77 1.06-7.21 1.19l-.33-2 3.38-.37c1.11-.13 2.22-.35 3.29-.67 1.98-.64 3.81-1.66 5.4-3 1.19-.99 2.16-2.21 2.85-3.59.7-1.47 1.32-2.98 1.84-4.52l2.1.58c-1.25 4.48-3.27 7.74-6.09 9.79m25.36-2.84-1.37-1.42c1.32-1.02 2.52-2.18 3.59-3.45.68-.82 1.24-1.73 1.68-2.7l-10.49 1.89v6.71c0 2.14 1.27 3.21 3.82 3.21h9.13v2h-9.41c-1.38.05-2.75-.33-3.89-1.11a4.8 4.8 0 0 1-1.89-4.12v-6.28l-4.38.8-.23-2 4.66-.81v-4.93h2.28v4.57l12.17-2.13 1.26 1.2c-.6 1.46-1.37 2.84-2.29 4.12a18 18 0 0 1-4.64 4.45m16.71-11.87h2.24v11.4h-2.24zm14.47 12.37c-1.43 3.81-5.43 5.91-12 6.32l-.46-1.91c4.1-.35 6.94-1.19 8.5-2.53a7.36 7.36 0 0 0 2.36-5.91v-8.77H160v9c.03 1.3-.18 2.59-.61 3.82m19.41 3.16c-1.39 1.52-3.63 2.6-6.7 3.24l-.68-1.79c3.45-.72 5.66-2.14 6.62-4.29.43-1.03.62-2.14.58-3.26v-.89H169v-1.93h20.41v1.88h-8.51v.59c.15 2.34-.59 4.64-2.08 6.45m-8.52-15h18v1.87h-18zm25.92 14.45-1.28-1.28c1.01-1.23 1.89-2.55 2.65-3.94a22.4 22.4 0 0 0 2.24-4.87h-3.38v-1.73h3.7V13.9h2.15v4.57h2.84v1.72h-2.84v1.45c.91 1.26 1.97 2.41 3.15 3.42l-1.15 1.77c-.74-.7-1.41-1.47-2-2.3v9.76h-2.15v-9.83c-.95 2.16-2.28 4.14-3.93 5.83m20 1.26c0 1.2-.83 1.91-2.47 2.14-.95.11-1.91.16-2.87.14-.95.01-1.9-.06-2.84-.23-.99-.11-1.7-1.01-1.59-2V13.92h2.17V31c0 .49.26.76.79.82 1.28.18 2.59.18 3.87 0a1 1 0 0 0 .89-.89c.19-1.08.26-2.17.23-3.26l1.82.21zm11.36 2.67h-2V18.58h-1.22v10.79h-1.79V16.91h3v-3.1h2v3.1h3.13v10.74c-.01.42-.24.8-.61 1-.29.2-.64.32-1 .33h-.91l-.44-1.63h.72c.29 0 .45-.13.45-.4v-8.37h-1.29zm11.86-8.76 1.33-3.5 2 .49-1.42 3h2.4v1.68h-4.12v4.21c0 .36.21.57.62.63.27.04.53.04.8 0a.86.86 0 0 0 .77-.68c.1-.66.15-1.33.14-2l1.77.23v2.15c.11 1.06-.67 2.01-1.73 2.11-.11.01-.22.01-.32 0-.86.08-1.72.06-2.57-.05-.95-.08-1.65-.9-1.58-1.85 0-.05.01-.1.02-.15v-4.6H236c-.03.89-.17 1.77-.42 2.63a5.93 5.93 0 0 1-2 2.85 8.36 8.36 0 0 1-3.39 1.67l-.88-1.58c1.38-.34 2.61-1.1 3.52-2.19.27-.38.5-.79.67-1.23.23-.7.36-1.43.37-2.16h-2.63v-1.67h1.52l-1.08-3 2-.49 1.19 3.5h1.26v-3.88h-4.38v-7.22h10.95v7.22h-4.38v3.87h1.12Zm1.07-9.56h-6.66v1.33h6.66zm-6.66 4.11h6.66v-1.33h-6.66zM29 25.47c0-.42 0-.84-.05-1.27-.07-1-.17-2-.33-3-.75.29-1.49.62-2.2 1 .1.77.18 1.52.22 2.26 0 .4 0 .8.05 1.19v1.67c0 .15 0 .51-.05.76s0 .29 0 .43-.06.53-.1.79 0 .24-.05.36c-.05.34-.11.67-.18 1v.12q-.12.555-.27 1.08c-.03.12-.07.24-.11.35-.06.24-.14.47-.21.7s-.1.29-.16.43-.15.4-.23.6c-.57 1.42-1.31 2.77-2.22 4l-.35.46a21.1 21.1 0 0 0-7.53-1.8c-.66 0-1.38-.07-2.17-.07-.44-1.04-.96-2.05-1.57-3-.84-1.31-1.82-2.52-2.92-3.61A16.7 16.7 0 0 0 0 25.21c0 .61.08 1.23.16 1.84 0 .2 0 .39.08.59 2.52.68 4.81 2.02 6.64 3.89 1.48 1.45 2.71 3.14 3.62 5-2.13.18-4.24.57-6.29 1.17.47.69.97 1.36 1.51 2 3.03-.78 6.16-1.06 9.28-.84 2.09.11 4.14.54 6.09 1.29a23 23 0 0 1-3.65 2.93c-1.44.94-2.97 1.74-4.56 2.4q1.38.705 2.82 1.26 1.545-.765 3-1.71c1.56-1.02 3-2.21 4.3-3.55.87.96 1.56 2.06 2.05 3.26.46 1.11.78 2.27.95 3.46.39 0 .77-.06 1.16-.11s.77-.1 1.14-.17c-.19-1.4-.56-2.77-1.09-4.07-.18-.44-.37-.83-.57-1.21 1.44-.2 2.9-.29 4.36-.26 1.29 0 2.57.17 3.82.48-.16-.81-.26-1.63-.31-2.45a19.7 19.7 0 0 0-3.51-.34c-1.92-.07-3.83.1-5.71.48-.23-.29-.47-.57-.73-.83l.36-.47c.96-1.31 1.76-2.72 2.39-4.21l.3-.76v-.09c.12-.34.24-.68.35-1 .1-.31.19-.63.27-.94l.06-.23c.08-.3.14-.6.21-.9v-.32c.06-.29.11-.58.15-.88v-.27c0-.28.08-.56.11-.84v-.64c1.69 1.22 3.13 2.75 4.24 4.52.6.9 1.14 1.84 1.64 2.8q.12-.6.27-1.2c.17-.66.38-1.32.61-2-.2-.32-.39-.63-.59-.92a16.76 16.76 0 0 0-5.93-5.9" style="fill:#003e64"/><path d="M6.86 16.92q-.81 1.995-1.92 3.84a15.5 15.5 0 0 1-2.33 3.07c.78.27 1.55.61 2.28 1 .74-.88 1.41-1.83 2-2.82a24.8 24.8 0 0 0 2.44-5.19c.39-.06.75-.14 1.08-.22 1.12 2.78 2.82 5.28 5 7.33l.09.08q.3.285.6.54l.17.15c.25.21.5.42.76.62h.05l.52.4c.2.16.42.31.63.45a15.8 15.8 0 0 1-6 1.41q-1.62.09-3.24 0c.31.26.61.54.9.83.49.48.95 1 1.4 1.51h1.09c2.86-.07 5.66-.87 8.13-2.33 1.24.68 2.52 1.27 3.84 1.78.13-.79.21-1.6.24-2.4-1.56-.63-3.05-1.41-4.47-2.32-.55-.35-1.08-.73-1.59-1.13l-.67-.55-.18-.16-.47-.42a18.4 18.4 0 0 1-4.62-6.7c2.11-1.53 3.91-3.44 5.32-5.63.37-.54.76-1.16 1.15-1.84q1.215.15 2.43.15h.94c1.55-.09 3.08-.36 4.57-.79 3.2-.82 6.08-2.56 8.3-5-.73-.37-1.47-.71-2.23-1a14.64 14.64 0 0 1-6.68 3.81c-2.01.55-4.1.76-6.18.61.91-1.92 1.63-3.93 2.14-6-.38 0-.76.06-1.15.11s-.89.12-1.33.2c-.83 2.99-2.14 5.83-3.87 8.4a19.9 19.9 0 0 1-4.2 4.58c-.51-1.99-.76-4.04-.74-6.1.01-1.2.09-2.41.24-3.6-.87.55-1.7 1.15-2.5 1.8 0 .6-.06 1.2-.06 1.79-.02 2.26.25 4.51.81 6.7.05.16.09.33.14.5-1.26.27-2.57.32-3.85.15-1.19-.16-2.36-.47-3.47-.93-.34.7-.63 1.41-.9 2.14 1.31.53 2.67.9 4.07 1.09.46.06.91.09 1.33.11" style="fill:#003e64"/><path d="M39.67 18.7c1.5.41 2.95.98 4.33 1.69 1.53.79 2.99 1.71 4.36 2.75 0-.69-.09-1.38-.17-2.07-.04-.33-.09-.66-.15-1-.96-.65-1.97-1.23-3-1.76-1.67-.86-3.42-1.53-5.24-2 .4-1.23 1.01-2.39 1.8-3.41.73-.95 1.58-1.8 2.53-2.54-.43-.64-.9-1.26-1.39-1.86-1.12.87-2.13 1.88-3 3-.27.35-.53.72-.76 1.1a27 27 0 0 1-2.37-3.59c-.65-1.12-1.15-2.31-1.5-3.55a17 17 0 0 1-2 1.5c.39 1.09.87 2.15 1.43 3.16.91 1.69 2.01 3.27 3.28 4.71-.14.37-.26.72-.35 1H37c-3.06-.34-6.15 0-9.06 1-.89.31-1.76.67-2.61 1.07.21-2.07.82-4.09 1.8-5.93.48-.97 1.02-1.91 1.6-2.82q-.57.195-1.17.36c-.66.19-1.33.34-2 .46l-.5 1A16.85 16.85 0 0 0 23 19.16c-1.23.74-2.41 1.57-3.53 2.48.64.51 1.31.97 2 1.4 5-3.84 10.09-5.49 15.32-4.91l.57.08c.27 2.59 1.02 5.11 2.21 7.42.29.59.63 1.24 1 1.92-.68.9-1.28 1.86-1.8 2.86a19.8 19.8 0 0 0-1.66 4.33c-.89 3.18-.82 6.55.21 9.69.69-.43 1.36-.91 2-1.42a14.75 14.75 0 0 1 0-7.69c.53-2.02 1.39-3.93 2.56-5.66 1.21 1.76 2.59 3.39 4.12 4.87.37-.75.71-1.52 1-2.31-2.2-2.23-4.02-4.8-5.39-7.61-.95-1.86-1.6-3.85-1.92-5.91M14.93 8.34c.72-1.22.46-2-.07-2.36s-1.38-.16-2.11 1c-.46 1.05-.64 2.2-.53 3.34a6.7 6.7 0 0 0 2.71-2M26 2.91c1.23-.7 1.41-1.55 1.1-2.09S25.98 0 24.75.7a6.7 6.7 0 0 0-2.1 2.65A6.7 6.7 0 0 0 26 2.91M14.43 4.87c1.14.06 2.28-.18 3.31-.69a6.76 6.76 0 0 0-2.86-1.81c-1.39-.25-2.07.29-2.18.9s.34 1.35 1.73 1.6m-8.84 8.42c1.12-.26 2.15-.81 3-1.58a6.63 6.63 0 0 0-3.25-.94c-1.4.14-1.91.84-1.85 1.46s.7 1.2 2.11 1.06m-3.06 8.5c.98-.59 1.8-1.42 2.37-2.41a6.8 6.8 0 0 0-3.38.08c-1.3.57-1.56 1.4-1.32 2s1 .94 2.33.37m7.63 1.78a6.75 6.75 0 0 0-2-2.75c-.45 1.05-.62 2.2-.5 3.34.33 1.38 1.12 1.79 1.73 1.64s1.09-.85.77-2.23M7.68 35.98A6.56 6.56 0 0 0 6 33.03c-1.1-.89-1.95-.74-2.34-.26s-.35 1.34.75 2.23c.98.61 2.09.95 3.24 1M14 32.39c-.62 1.27-.29 2.07.27 2.34s1.39 0 2-1.23c.36-1.08.44-2.25.23-3.37a6.8 6.8 0 0 0-2.5 2.26m8.91 2.5c.88-1.11.73-2 .24-2.35s-1.35-.33-2.23.77c-.58.99-.89 2.11-.92 3.25 1.1-.29 2.11-.87 2.93-1.67" style="fill:#003e64"/><path d="M29.7 35.22c-.65 1.26-.34 2.07.21 2.35s1.39.08 2-1.18c.4-1.07.51-2.23.32-3.36-1.03.5-1.91 1.25-2.57 2.19m4.74-6.31a6.7 6.7 0 0 0 3.34-.54c1.21-.73 1.36-1.59 1-2.12s-1.15-.78-2.36-.05c-.89.72-1.58 1.65-2 2.71m-.6-7.62c-1.39.29-1.82 1-1.69 1.64s.81 1.13 2.2.85a6.7 6.7 0 0 0 2.81-1.87 6.7 6.7 0 0 0-3.32-.62m6.82 15.79c.44.43 1.31.48 2.3-.54.68-.92 1.12-2 1.27-3.13-1.13.18-2.2.65-3.09 1.37-1 1-.92 1.87-.48 2.3m6.26-12.15c-.6-.14-1.36.28-1.67 1.66-.11 1.14.08 2.29.55 3.33.87-.75 1.53-1.7 1.92-2.78.31-1.38-.2-2.08-.8-2.21m-5.56-2.9c.72.89 1.66 1.58 2.73 2 1.37.35 2.08-.15 2.23-.74s-.24-1.38-1.61-1.72a6.6 6.6 0 0 0-3.35.46m-19.85 6.7c-1.12.27-2.16.83-3 1.63-.9 1.1-.76 2-.28 2.34s1.35.36 2.24-.74c.61-.97.95-2.08 1-3.23m4.36-5.1c.62-1.27.29-2.07-.27-2.34s-1.39 0-2 1.23a6.8 6.8 0 0 0-.23 3.38 6.7 6.7 0 0 0 2.51-2.27M16.6 42.95c.56-1 .86-2.13.85-3.28-1.1.33-2.09.94-2.88 1.77-.84 1.14-.66 2-.17 2.35s1.36.3 2.2-.84m4.4 1.93c-1.21.74-1.36 1.6-1 2.12s1.16.79 2.36.05c.89-.72 1.58-1.66 2-2.72-1.14-.1-2.28.09-3.33.55m10.53-.87a6.7 6.7 0 0 0-3.38 0c.59.98 1.42 1.79 2.42 2.35 1.31.54 2.09.15 2.32-.42s-.05-1.39-1.36-1.93M18.5 17.38c-1.12.26-2.15.81-3 1.59.99.58 2.1.9 3.25.93 1.4-.15 1.91-.86 1.84-1.47s-.71-1.2-2.11-1M21.22 12c-1-1-1.9-.86-2.32-.4s-.43 1.32.62 2.28c.94.65 2.03 1.05 3.17 1.16a6.66 6.66 0 0 0-1.47-3m7.51.62c-.89.73-1.58 1.67-2 2.74 1.14.09 2.29-.12 3.33-.6 1.2-.75 1.34-1.61 1-2.13s-1.17-.77-2.36 0M39.63 6.9c0-1.41-.64-2-1.26-2s-1.27.57-1.28 2a6.64 6.64 0 0 0 1.25 3.14c.69-.92 1.14-1.99 1.29-3.13m4.65 9.72c1.41 0 2-.66 2-1.28s-.59-1.26-2-1.25c-1.14.15-2.21.59-3.13 1.28.93.68 2.01 1.11 3.15 1.25m-9.74-4.57a6.8 6.8 0 0 0-1.93-2.77c-1.18-.77-2-.54-2.36 0s-.21 1.37 1 2.15c1.03.5 2.18.72 3.32.65M13.73 25.05a6.74 6.74 0 0 0-1.16-3.18 6.67 6.67 0 0 0-1.38 3.09c0 1.41.58 2 1.2 2s1.29-.53 1.34-1.94m-1.07 16.56a6.53 6.53 0 0 0-2.7-2c-.11 1.14.07 2.29.53 3.34.73 1.21 1.58 1.36 2.11 1s.79-1.14.06-2.36" style="fill:#003e64"/></svg>